<svg baseProfile="tiny" xmlns="http://www.w3.org/2000/svg" width="337" height="337"><polygon fill="#664F45" points="241.357,126.582 241.361,126.592 241.362,126.593"/><polygon fill="#664F45" points="85.578,240.534 85.576,240.533 85.575,240.533"/><polygon fill="#664F45" points="73.585,231.806 73.588,231.811 73.587,231.81"/><polygon fill="#664F45" points="73.593,231.817 73.595,231.817 73.588,231.811"/><polygon fill="#664F45" points="67.239,221.789 67.231,221.771 67.229,221.769"/><polygon fill="#664F45" points="66.603,220.157 66.602,220.15 66.601,220.148"/><polygon fill="#664F45" points="74.729,233.021 74.743,233.035 74.725,233.015 74.712,233.005"/><path fill="#644E42" d="M286.85 220.078c-.07-.428-.158-.834-.256-1.212-.061-.252-.144-.502-.236-.739-.182-.56-.38-1.11-.643-1.627l-.003-.01c-.536-1.071-1.28-2.073-2.18-2.883-.891-.811-1.921-1.408-2.922-1.788l-.031-.015c-1.063-.4-2.085-.572-2.995-.629-.266-.019-.514-.013-.764-.009.535-5.023-1.354-8.573-2.496-10.199l.192-.229c1.068-1.328 1.966-2.58 2.694-3.816l.137-.247c.575-1.09.909-2.177 1.087-3.154.15-.844.183-1.591.173-2.271h.009l.001-.042-.007-.097.002-.209-.017.002-.019-.233h.006l-.014-.14-.044-.43c-.028-.279-.065-.566-.122-.878-.253-1.504-.772-3.433-2.028-5.44-.63-.997-1.448-2.004-2.489-2.899-1.031-.896-2.282-1.674-3.675-2.239l.009.001-.272-.122c-3.199-3.646-6.673-6.35-9.704-8.348-1.569-1.038-3.022-1.886-4.252-2.573-1.226-.68-2.247-1.213-2.82-1.536l.006.003c-1.314-.734-2.274-1.154-2.734-1.342-1.061-.476-1.856-.866-2.338-1.142-.38-.221-.57-.367-.641-.428l-.042-.04c-.005-.009-.052-.079-.139-.338-.087-.26-.203-.706-.311-1.36-.175-1.027-.327-2.545-.461-4.557l-.778-13.771c-.113-1.926-.317-3.729-.599-5.417-.449-2.706-1.107-5.127-1.957-7.29l-.003-.013c-.19-.493-.396-.975-.609-1.446l-.003-.003-.003-.009c-.16-.351-.297-.614-.38-.784l.004.011c-.157-.312-.315-.621-.484-.933l-.008-.015-.332-.59-.005-.005v-.003c-.27-.458-.57-.952-.933-1.475l-.1-.14-.181-.246-.125-.164c-.658-.834-1.343-1.585-2.042-2.275-.479-1.344-1.265-3.323-2.434-5.537-1.034-1.947-2.366-4.085-4.135-6.138-.612-.707-1.298-1.397-2.035-2.064l.185-.25c.265-.352 6.496-8.746 10.892-19.178 8.2-19.444 3.34-30.105-2.178-35.624l-.156-.156-.165-.142c-5.221-4.529-11.842-6.825-19.676-6.825-16.23 0-33.331 10.093-37.794 12.91l-9.798-8.447-.039-.031c-.867-.744-1.803-1.383-2.795-1.931-.993-.544-2.039-.991-3.128-1.339-2.176-.698-4.511-1.015-6.949-1.016-4.896.007-10.238 1.256-15.938 3.499-8.543 3.374-17.904 9.015-27.489 16.515-9.581 7.503-19.372 16.875-28.659 27.731-11.348 13.265-20.39 26.925-26.636 39.597-3.121 6.338-5.546 12.429-7.201 18.13-1.651 5.701-2.544 11.007-2.546 15.816.001 3.493.473 6.735 1.537 9.646.462 1.273 1.054 2.48 1.758 3.603.904 1.446 2.001 2.754 3.306 3.869l.032.026 10.199 8.33 1.128.924-.043.108-.245.61c-.121.305-.24.609-.353.917l-.219.628c-.106.311-.212.62-.309.934l-.191.635c-.094.318-.182.639-.267.958l-.161.637c-.079.327-.152.657-.223.985l-.132.639c-.065.335-.122.671-.177 1.009l-.05.279-.053.359c-.051.345-.091.691-.131 1.04l-.071.627-.039.453-.046.645-.038.584c-.022.434-.031.87-.036 1.306l-.008.385v.037l.004.116.019.854c.011.446.033.895.062 1.347l.045.601.034.463c.029.313.072.629.11.945l.071.57.044.339.002.039.004.024.096.607.127.657.084.488.074.345.14.617.179.774.007.021-.003-.004.075.271.191.691.209.727.095.297.137.41.004.013.006.018.059.174.257.752.082.22.183.469.078.207.088.229.077.191.065.161.057.143.084.192.078.195.212.458.33.731-.024-.051.029.058.094.189.283.568.007.012v.002l.386.751.002.003.005.01-.005-.01.017.03-.008-.015.074.131.267.477.087.152.015.024.172.299.23.397-.008-.014.088.143.234.376.172.266-.008-.011.011.017.007.012-.007-.012.411.641.016.026.01.014.076.109.21.304.238.337.013.017.406.572.012.018.014.019.071.095.212.277.303.389.022.03.007.008.4.505.016.021.055.063.259.309.344.4-.016-.018.454.521.017.018.011.015-.02-.022.021.024.017.018-.003-.003.007.008.001.002.288.312.369.391-.008-.007.402.419.036.035.349.349.417.401.046.045.328.312.061.055v.001l.021.019.033.031h.001l.578.512.197.178-.001-.001.004.003.007.007.016.015-.005-.004.344.295.043.04.004.004.007.003.025.021-.006-.006c.222.188.439.36.657.533l.268.216.014.011.321.253.03.022.101.079c.262.2.53.391.797.58l.064.048.015.011.008.007.011.007.335.238.02.014c.343.234.685.463 1.023.68l.02.012.192.123.133.084-.007-.003.196.118c.286.178.568.348.839.506l.074.046.035.019.221.126.055.032.039.018.235.127.713.382.203.109.024.012.246.126.011.005.128.059.751.363.393.188.218.097.122.052.078.033c.396.175.767.331 1.104.465l.032.015.209.084.015.007c.465.181.906.341 1.325.486l.072.025.227.076v-.002l.664.207.313.1.385.122.106.032.031.008.052.016.634.167.107.025.713.188.059.015.173.038.337.07.104.021c.338.074.675.153 1.018.217l.081.014.028.008.016.003c.524.095 1.049.179 1.569.252l.021.003.086.012-.028-.005c.461.062.91.109 1.359.153h.004l.165.021.174.016c.427.04.858.059 1.293.082l.125.017.306.01.783.016.146.286.008.017c.938 1.823 1.931 3.63 2.981 5.417 16.159 31.776 52.604 53.435 91.117 53.435s75.863-30.242 88.125-66.355c.546-1.39 1.039-2.75 1.477-4.062 1.425-1.888 2.48-3.792 3.092-5.747.738-2.327.794-4.658.466-6.521z"/><path fill="#B3815A" d="M280.842 221.541l.002-.004s.016-1.572-.976-2.855l-.021-.035-.181-.212-.062-.075c-.106-.109-.227-.213-.354-.314-.227-.187-.485-.354-.784-.496-.157-.076-.327-.146-.505-.206-.493-.165-1.067-.267-1.742-.278-.493-.013-1.044.038-1.648.129-.24.04-.476.076-.738.131l-.12.021.066.154.169.424.089.231c.129.331.287.753.453 1.233l-.076.295-.026.102c-.215.735-.831 2.454-2.391 4.779-.266.397-.563.812-.888 1.243-4.43 5.884-14.504 14.73-37.127 21.792-7.717 2.084-14.952 3.049-21.234 3.049-9.286 0-16.505-2.071-20.182-5.604-.318-.303-.616-.619-.899-.94-.21-.236-.412-.477-.606-.723l-.199-.273c-1.673-2.249-2.596-4.819-2.881-7.38-.341-3.111.257-6.201 1.614-8.69 1.099-2.017 2.694-3.635 4.683-4.538.975-.444 2.039-.721 3.189-.785.23-.016.54-.018.926-.018l3.174.022.441.001c4.409 0 11.408-.208 19.708-1.759 15.104-2.82 34.544-10.097 50.691-28.762l.039-.071v-.002l-.005-.026c-.107-1.379-.599-3.839-2.573-5.554-.347-.301-.738-.576-1.178-.821-.25-.14-.511-.271-.796-.389-.285-.116-.547-.234-.801-.356-.346-.16-.677-.326-.973-.492l-.049-.052-.449-.523c-5.604-6.559-12.621-9.899-15.451-11.479-1.335-.749-2.16-1.06-2.16-1.06-6.04-2.722-7.005-3.753-7.637-13.104-.227-3.365-.41-7.806-.78-13.812-.047-.781-.115-1.521-.19-2.247l-.058-.51c-.078-.684-.17-1.352-.272-1.989l-.03-.184-.04-.195c-.09-.501-.188-.986-.289-1.457l-.139-.618c-.12-.502-.247-.99-.384-1.457l-.222-.7-.26-.765-.265-.728-.001-.002v-.003l.001.003c-.114-.29-.232-.562-.352-.836l-.128-.299-.127-.266-.047-.089-.126-.262-.009-.017-.316-.612-.037-.064-.104-.188-.128-.23-.024-.045-.003-.002c-.219-.373-.438-.734-.673-1.068l-.18-.245c-.259-.326-.518-.628-.779-.918l-.107-.123-.13-.132c-.187-.199-.372-.394-.561-.576l-.252-.246c-.247-.229-.491-.451-.737-.652v-.002l-.014-.035-.011-.045-.019-.061-.024-.086-.024-.087-.048-.14-.025-.084-.064-.197-.02-.071c-.123-.371-.294-.853-.51-1.418l-.017-.042-.17-.43-.021-.055-.194-.474-.005-.011c-.159-.38-.342-.788-.538-1.209l-.2-.419c-.141-.296-.285-.59-.444-.898l-.283-.526c-.152-.286-.309-.569-.479-.858l-.336-.569c-.178-.287-.354-.569-.541-.853l-.388-.576c-.199-.29-.409-.569-.626-.852l-.419-.541c-.245-.301-.506-.593-.768-.887l-.395-.438-.375-.36c-.297-.294-.591-.591-.911-.861l-.038-.031-.177-.132c-.411-.341-.839-.673-1.287-.968l-.081-.053c-.201-.13-.403-.256-.609-.372l-.022-.014-.074-.042-.542-.291-.096-.052.039.024c-.192-.111-.54-.241-.988-.378l-.513-.145c-.918-.243-2.15-.493-3.604-.693l-.272-.033c-1.202-.156-2.53-.277-3.936-.325-.47-.017-.947-.026-1.433-.024l-.687.021-.278.009c-1.095.031-2.197.096-3.299.241l-.063.013c-1.417.191-2.821.481-4.145.921.251-.567 1.041-1.259 1.846-1.854.998-.743 2.02-1.327 2.02-1.327-.609.121-1.227.286-1.844.468l-.599.175-.388.123-.111.039-.322.109c-3.081 1.066-5.98 2.585-7.587 3.487l-.604.342-.104.058-.501.129.003-.005c.962-2.464 2.65-3.936 3.969-4.768.231-.146.455-.279.656-.384l.21-.105.5-.235c.32-.138.527-.207.527-.207l-.43.087-.37.073-.54.11-.328.064c-3.451.815-6.415 2.388-8.897 4.192-1.712 1.244-3.202 2.596-4.437 3.897l-1.094.375c-3.726 1.292-7.961 2.886-12.384 4.869-1.631.73-3.289 1.515-4.953 2.354-1.297.657-2.597 1.356-3.897 2.084-.932.522-1.862 1.062-2.787 1.621-6.661 4.024-13.091 9.069-18.235 15.403l-.562.677c-.446.571-.869 1.16-1.293 1.749l-.527.714c-.212.304-.403.626-.609.936-.931 1.401-1.815 2.844-2.612 4.363-.591 1.128-1.14 2.29-1.647 3.482l-.063.143c-1.049 2.487-1.908 5.12-2.544 7.904-.319 1.394-.582 2.824-.784 4.295-.055.39-.107.778-.154 1.173l-.026.207c-.176 1.59-.273 3.228-.306 4.911l-.021.993c0 .838.022 1.69.059 2.549.032.785.084 1.583.148 2.388l.017.185c.032.394.059.785.1 1.184.047.454.107.919.164 1.378l.037.322c.117.902.244 1.808.398 2.732l.028.149c.155.918.338 1.851.535 2.79l.254 1.172.063.291.157.658c.247 1.035.522 2.085.818 3.149l.246.888c.271.929.555 1.864.862 2.813 0 0-.324-1.226-.446-3.073-.027-.427-.045-.883-.044-1.371 0-1.059.081-2.234.312-3.467.057-.301.125-.607.2-.914l.11-.401c.156-.572.342-1.147.575-1.724l.365 1.124.039.122.02.178.087.766c.068.586.151 1.244.246 1.966.098.722.207 1.496.335 2.316.535 3.436 1.349 7.567 2.537 11.023 0 0-.662-6.47.339-7.337 0 0 3.395 11.714 5.729 16.004.303.555.587.993.846 1.258l-.193-1.18-1.078-6.609-.048-.687c1.665 2.557 3.526 5.165 5.591 7.824.573.737 1.152 1.475 1.758 2.219-2.924 3.294-5.452 7.757-7.024 12.913-.25.824-.479 1.664-.677 2.523-.113.488-.218.985-.313 1.481l-.086.472c-.063.351-.121.702-.176 1.057l-.08.543c-.048.355-.091.71-.13 1.067l-.055.504c-.05.51-.093 1.025-.123 1.544l-.001.049c-.03.52-.046 1.044-.056 1.568v.507c-.001.373.003.75.014 1.127l.019.574c.016.377.036.758.063 1.14l.037.516c.048.546.103 1.098.173 1.652l.011.071c.055.425.118.851.188 1.275.071.429.151.856.238 1.288l.032.172.019.111c.109.521.229 1.044.361 1.567l.133.497c.096.358.192.717.299 1.078l.187.598c.104.33.207.656.32.986l.226.632c.114.319.233.639.358.958l.258.645c.131.318.268.637.409.957l.283.631c.152.331.313.66.476.992l.295.592c.187.363.385.725.585 1.09l.267.485c.598 1.051 1.253 2.097 1.968 3.138l.328.46c.257.366.516.729.787 1.093l.437.566c.252.326.508.65.771.978l.504.602c.261.31.528.622.802.931l.552.61c.279.306.566.611.858.917l.581.602c.308.311.627.621.946.928l.59.566c.357.334.73.67 1.105 1.002l.524.469c.561.487 1.135.972 1.732 1.451l-.003-.002c-.004-.007-.365-.407-.874-1.129l-.018-.021-.301-.438-.031-.045-.338-.526-.021-.031-.374-.633c-1.012-1.774-2.09-4.278-2.354-7.188.351.366.705.716 1.06 1.073.444.68 1.007 1.519 1.66 2.459l.682.97c.948 1.33 2.042 2.804 3.216 4.266 1.41 1.756 2.938 3.5 4.473 4.972l-.002-.002c-.007-.011-1.955-3.044-2.734-5.093-.22-.577-.352-1.08-.316-1.412l.423.338.422.335 1.055 1.089.204.207.632.646.015.013.807.813c2.52 2.524 5.857 5.735 8.165 7.44.768.57 1.425.971 1.894 1.123l-3.641-4.962c7.418 4.643 36.085 8.224 62.488-3.034 3.188-1.359 6.342-2.938 9.422-4.757 1.859-1.097 3.689-2.27 5.484-3.545l.262-.192c1.259-.902 2.494-1.861 3.716-2.859l.028-.021c.919-.749 1.823-1.529 2.716-2.332 1.49-1.355 2.961-2.771 4.373-4.286l.004-.002.008-.007.247-.272c1.396-1.561 2.685-3.15 3.868-4.752 1.561-2.111 2.936-4.245 4.155-6.362l.093-.154c.293-.521.586-1.04.863-1.553l.081-.151.261-.513c.388-.74.77-1.476 1.125-2.207l.253-.526c.186-.387.358-.772.531-1.152l.394-.889.416-.958c.239-.578.471-1.153.691-1.721l.253-.668c.169-.44.328-.878.482-1.308l.21-.602.06-.188c.192-.543.373-1.082.541-1.609l.031-.112c.78-.932 1.368-1.798 1.826-2.617l.193-.348c1.01-1.926 1.215-3.534 1.063-4.933z"/><path fill="#91674A" d="M114.812 222.082l-.112-.363.021-.012c-.54-1.725-1.008-3.502-1.411-5.331l-.09-.383c-.295.132-.59.579-.866 1.172-.103.223-.201.465-.299.717-.709 1.854-1.243 4.369-1.243 4.369-.034-.816-.05-1.659-.056-2.513v-.296c-.002-.866.01-1.745.031-2.618l.007-.313c.027-.984.064-1.963.112-2.909l.019-.365.004-.062.019-.331.026-.487c.043-.749.091-1.476.14-2.166.045-.623.091-1.213.137-1.769l.014-.179.021-.252.021-.248.002-.029.035-.414.003-.036.033-.362.052-.568.005-.051.039-.425.054-.533.001-.007v-.005l.025-.263.003-.018.022-.233.049-.454.013-.111.004-.039.015-.129.011-.087.002-.015-.013.015-.164.191c-.149.168-.299.332-.435.515l-.146.206c-.157.226-.308.462-.445.708l-.071.122c-.169.31-.323.632-.465.958l-.001.002-.018.044v.003l-.057.145-.095.239-.235.607-.002.005-.002.01-.005.017-.024.077-.025.08c-.108.321-.204.639-.293.953-.249.881-.423 1.715-.544 2.404l-.113.682c-.065.445-.105.792-.124.961l-.001.017-.012.114v0l-.005-.131-.032-.771c-.026-.54-.06-1.08-.066-1.621-.009-.452.008-.897.016-1.348l.008-.425.015-.621.037-.576.001-.014v-.003l.012-.213.004-.056.043-.705.018-.271.014-.162.001-.027.019-.23.031-.28.112-1.021.005-.057.082-.756.002-.012.005-.018.01-.073c.068-.512.15-1.021.231-1.526l.021-.14.021-.142.045-.287c.139-.825.294-1.643.467-2.444l.024-.1c.147-.682.303-1.354.469-2.017l.019-.075.231-.862.012-.044c.117-.431.229-.864.349-1.284l.003-.003v-.001l.001-.006.016-.053.228-.736.002-.008.016-.05v-.005l.135-.438.221-.713.064-.207.002-.009 1.345-3.333.166-.42.027-.066.068-.171.437-1.103.616-1.528c.396-.979.735-1.811.941-2.313l.211-.519.011-.025h-.002l-.006-.005-.019-.012c-.071-.037-.644-.332-1.577-.749-1.061-.474-2.599-1.102-4.447-1.696-.593-.19-1.215-.375-1.865-.553-.777-.211-1.588-.408-2.433-.578l-.659-.111c-.706-.129-1.423-.235-2.153-.317l-.043-.006c-.501-.053-1.002-.116-1.515-.147-.402-.023-.803-.049-1.209-.053l-.587.014-.577.015c-.543.018-1.085.059-1.628.117-.262.025-.525.05-.787.087-1.17.173-2.312.422-3.426.723l-.203.058c-2.004.561-3.91 1.319-5.699 2.26-.607.321-1.203.655-1.782 1.017l-.491.316-.598.39c-1.741 1.189-3.335 2.563-4.771 4.085l-.051.055c-1.231 1.312-2.342 2.735-3.312 4.256-.279.434-.544.873-.802 1.322-.3.529-.588 1.063-.855 1.612-.507 1.035-.954 2.103-1.338 3.195-.135.384-.265.771-.384 1.161l-.062.227c-.752 2.543-1.169 5.213-1.199 7.957-.008.537 0 1.077.021 1.62l.01.202c.021.433.052.86.093 1.293.05.53.113 1.062.191 1.588l.043.251c.065.412.134.821.215 1.227l.05.214.062.281c.067.32.136.639.216.951l.019.07.006.018v.004l.133.47c.077.283.151.569.236.846l.197.604.262.777.241.621.056.146.084.215.066.165.076.195.282.639.302.669.322.64.087.172.235.457.362.646.336.585.204.322.202.32.349.545.452.645.355.502.498.645.358.452.544.642.361.415.592.636.358.371c.21.216.428.424.646.629l.347.332c.229.212.462.416.699.619l.335.289c.245.209.498.412.752.609l.322.253.805.593.306.215c.284.194.571.385.86.571l.288.185c.302.191.605.371.915.549l.264.154c.319.178.643.35.97.518l.242.122c.338.17.678.336 1.023.491l.217.097c.355.162.716.31 1.077.454l.191.077c.373.146.75.282 1.13.414l.163.053c.39.132.783.256 1.18.369l.141.043c.404.115.814.221 1.227.321l.111.021c.422.102.846.192 1.275.271l.086.019.628.1.688.111.064.01c.449.061.901.107 1.355.148l.039.006.008.001c.459.04.921.067 1.387.085l.02.005c1.427.05 2.874 0 4.332-.164h.001c.347-.038.695-.076 1.043-.122.463-.07.937-.16 1.411-.261.65-.135 1.307-.296 1.963-.479.579-.159 1.155-.336 1.727-.532.892-.305 1.769-.64 2.607-1 2.518-1.084 4.701-2.383 5.951-3.582 0 0-1.407-3.91-2.682-7.898l-.414-1.335z"/><polygon fill="#906A4D" points="221.834,110.692 221.837,110.692 221.823,110.686"/><path fill="#F9E7CC" d="M280.842 221.541l.002-.004s.016-1.572-.976-2.855l-.021-.035-.181-.212-.062-.075c-.106-.109-.227-.213-.354-.314-.227-.187-.485-.354-.784-.496-.157-.076-.327-.146-.505-.206-.493-.165-1.067-.267-1.742-.278-.493-.013-1.044.038-1.648.129-.24.04-.476.076-.738.131l-.12.021.066.154.169.424.089.231c.129.331.287.753.453 1.233l-.076.295-.026.102c-.215.735-.831 2.454-2.391 4.779-.266.397-.563.812-.888 1.243-4.43 5.884-14.504 14.73-37.127 21.792-7.717 2.084-14.952 3.049-21.234 3.049-9.286 0-16.505-2.071-20.182-5.604-.318-.303-.616-.619-.899-.94-.21-.236-.412-.477-.606-.723l-.199-.273c-1.673-2.249-2.596-4.819-2.881-7.38-.341-3.111.257-6.201 1.614-8.69 1.099-2.017 2.694-3.635 4.683-4.538.975-.444 2.039-.721 3.189-.785.23-.016.54-.018.926-.018l3.174.022.441.001c4.409 0 11.408-.208 19.708-1.759 15.104-2.82 34.544-10.097 50.691-28.762l.039-.071v-.002l-.005-.026c-.107-1.379-.599-3.839-2.573-5.554-.347-.301-.738-.576-1.178-.821-.25-.14-.511-.271-.796-.389-.285-.116-.547-.234-.801-.356-.346-.16-.677-.326-.973-.492l-.049-.052-.449-.523c-5.604-6.559-12.621-9.899-15.451-11.479-1.335-.749-2.16-1.06-2.16-1.06-6.04-2.722-7.005-3.753-7.637-13.104-.227-3.365-.41-7.806-.78-13.812-.047-.781-.115-1.521-.19-2.247l-.058-.51c-.078-.684-.17-1.352-.272-1.989l-.03-.184-.04-.195c-.09-.501-.188-.986-.289-1.457l-.139-.618c-.12-.502-.247-.99-.384-1.457l-.222-.7-.26-.765-.265-.728-.001-.002v-.003l.001.003c-.114-.29-.232-.562-.352-.836l-.128-.299-.127-.266-.047-.089-.126-.262-.009-.017-.316-.612-.037-.064-.104-.188-.128-.23-.024-.045-.003-.002c-.219-.373-.438-.734-.673-1.068l-.18-.245c-.259-.326-.518-.628-.779-.918l-.107-.123-.13-.132c-.187-.199-.372-.394-.561-.576l-.252-.246c-.247-.229-.491-.451-.737-.652l-.004-.002c-.297-.247-.599-.478-.896-.688-.332-.155-.659-.288-.984-.4l-.317-.098c-.212-.07-.428-.136-.64-.187l-.367-.074-.566-.099-.374-.034c-.183-.017-.361-.026-.54-.028l-.368.004-.529.031-.351.042c-.183.023-.359.056-.536.092l-.329.07-.233.066-.326.093-.283.088c-.215.073-.429.156-.642.247l-.188.075c-.557.244-1.105.539-1.648.869l-.178.114-.629.407-.237.169-.567.405-.252.193-.555.431-.248.199-.574.474-.213.18-.646.558-.128.111-.73.648-.011.011-.039.03h.002l-1.373 1.232c-.388.349-.78.696-1.175 1.043l-.191.17c-.4.346-.806.688-1.21 1.027l-.204.168c-.411.331-.823.655-1.244.967l-.219.161c-.423.312-.854.605-1.289.89l-.218.137c-.441.282-.896.55-1.358.794l-.192.101c-.479.246-.963.476-1.465.678l-.131.05c-.527.207-1.06.39-1.611.534-.923.244-1.863.402-2.805.525-1.541.199-3.102.265-4.686.227-.529-.015-1.06-.04-1.591-.071l-.566-.03c-1.388-.093-2.789-.239-4.199-.399l-1.778-.201c-.959-.112-1.924-.214-2.891-.312l-.569-.061.008-.001-.405-.035-.643-.058-.61-.044-.106-.01-.072-.005-.562-.042c-.437-.025-.873-.051-1.312-.068l-.388-.011c-.326-.011-.648-.02-.972-.022l-.491.002h-.037l-.844.011-.561.017-.256.015-.576.03-.553.037c-.296.023-.584.053-.876.086l-.262.029-.245.025c-.36.046-.725.097-1.088.158l-.292.046c-.46.077-.92.172-1.38.278l-.361.087c-.297.073-.595.152-.892.235l-.134.036-.49.148c-.301.096-.604.194-.906.299l-.521.191c-.299.112-.601.232-.898.358l-.509.22c-.321.143-.641.296-.961.46l-.436.216c-.469.241-.932.501-1.397.782-3.579 2.699-6.519 6.143-8.712 10.006-.731 1.286-1.381 2.62-1.943 3.988-.597 1.449-1.084 2.939-1.48 4.45-.115.441-.225.882-.323 1.328-.165.75-.311 1.504-.426 2.264l-.031.245c-.123.854-.214 1.712-.272 2.573-.06.899-.08 1.799-.068 2.699.008.485.018.971.046 1.455.078 1.306.246 2.599.486 3.885l.068.349c.064.33.116.654.192.982.21.909.455 1.813.752 2.701.109.332.239.639.361.954l.346.907v-.002c.934 2.252 2.124 4.238 3.467 6.011 5.104 6.74 12.555 10.222 17.85 11.93 2.053.616 4.182 1.132 6.378 1.542l-.233.2c-.361.14-.784.31-1.25.504-.705.297-1.521.661-2.414 1.092-1.003.482-2.108 1.053-3.263 1.707-3.083 1.75-6.532 4.126-9.474 7.174-.365.382-.727.775-1.076 1.176-.596.685-1.157 1.411-1.687 2.159l-.187.252-.233.353c-.202.301-.396.606-.583.917l-.227.374c-.245.425-.483.853-.704 1.296-.217.434-.421.88-.61 1.33-1.517 3.622-2.114 7.806-1.174 12.592l.003-.051.002-.037.015-.185.003-.042.024-.261.009-.06.046-.384.014-.095.073-.492.001-.003.102-.558.023-.121.135-.623.024-.104.161-.63.025-.101.215-.722.051-.156c.081-.254.167-.507.264-.771v-.002l.015-.025c.145-.395.313-.792.495-1.197l.211-.459.062-.126.001-.005c.156-.317.329-.637.516-.957.151-.262.313-.519.484-.778l.166-.245c.137-.197.281-.397.43-.59l.184-.238c.204-.26.418-.512.644-.761l.02-.021v0s-3.16 10.496-.268 18.146l-.01-.065-.008-.052-.021-.159-.005-.042-.032-.288-.004-.045-.034-.394-.003-.045-.029-.49-.002-.043-.018-.572v-.68l.001-.058.028-.726.003-.058.006-.127.003-.006c.018-.28.048-.571.085-.864l.009-.059c.038-.288.084-.578.139-.874l.052-.269.037-.191.002-.003c.053-.243.116-.487.186-.731l.01-.04.001-.003c.099-.338.221-.676.354-1.006l.108-.264c.143-.33.297-.655.479-.967l.008-.016h.001s.051 2.48.481 5.385c.067.458.148.924.235 1.398.058.314.118.627.188.941-.192-3.156.012-6.17.504-9.016-.493 2.848-.697 5.86-.504 9.019v.001c.124 2.014.408 4.087.886 6.211.794 3.539 2.116 7.229 4.111 11.029 0 0-1.945-4.418-.536-9.253.23.397.475.79.727 1.188.331 1.342.848 3.245 1.512 5.323.824 3.501 3.848 13.933 12.007 20.519 0 0-3.173-3.205-3.323-7.874.361.573.711 1.082 1.042 1.52 1.523 2.163 4.517 6.169 7.571 8.822 0 0-2.699-3.942-2.305-4.914 0 0 8.194 7.941 10.559 8.521l-3.578-4.551-.087-.137c11.24 6.196 25.734 7.211 42.628.163 2.904-1.211 5.875-2.665 8.917-4.368 1.86-1.096 3.688-2.27 5.485-3.544l.262-.192c1.259-.904 2.494-1.861 3.717-2.859l.026-.023c.92-.748 1.824-1.527 2.716-2.33 1.491-1.356 2.961-2.771 4.374-4.285l.004-.004.007-.007.247-.272c1.396-1.56 2.685-3.15 3.869-4.751 1.562-2.112 2.935-4.245 4.154-6.364l.093-.152c.295-.521.586-1.041.864-1.554l.08-.15.261-.515c.388-.738.77-1.475 1.125-2.205l.254-.527c.185-.386.357-.771.531-1.151l.394-.889.414-.958c.24-.579.473-1.152.692-1.721l.254-.67c.167-.438.327-.877.48-1.306l.21-.601.062-.189c.19-.543.372-1.082.54-1.609l.032-.111c.78-.934 1.368-1.799 1.825-2.618l.195-.347c1.009-1.911 1.214-3.519 1.062-4.918z"/><path fill="#F9E7CC" d="M113.22 215.996c-.295.132-.59.579-.866 1.172-.103.223-.201.464-.299.717-.709 1.854-1.243 4.369-1.243 4.369-.034-.816-.05-1.66-.056-2.514v-.295c-.002-.867.01-1.745.031-2.618l.007-.313c.027-.985.064-1.963.113-2.909l.018-.366.004-.061.02-.331.025-.486c.044-.749.091-1.478.14-2.167.045-.624.091-1.212.137-1.77l.014-.178.021-.252.021-.248.002-.029.035-.415.003-.036.033-.362.052-.566.006-.053.039-.425.053-.532.001-.007v-.006l.026-.263.002-.018.023-.231.049-.455.012-.111.004-.04.016-.127.01-.089.002-.013-.012.013-.165.193c-.149.166-.299.33-.435.514l-.146.205c-.157.228-.307.463-.445.708l-.071.122c-.169.311-.323.632-.465.958l-.001.003-.018.043v.004l-.057.143-.095.24-.235.607-.001.006-.003.009-.005.018-.024.077-.025.079c-.108.321-.204.64-.293.953-.248.882-.423 1.715-.544 2.404l-.112.684c-.066.443-.106.79-.125.96v.016l-.013.115v0l-.005-.132-.032-.771c-.026-.54-.06-1.08-.066-1.619-.009-.454.008-.9.016-1.351l.008-.424.015-.621.037-.577.001-.013v-.003l.012-.213.004-.057.044-.704.017-.271.015-.163.001-.027.019-.23.031-.28.112-1.021.005-.056.082-.757.002-.011.005-.018.01-.074c.068-.511.15-1.02.231-1.525l.021-.138.021-.143.045-.288c.139-.824.294-1.643.467-2.445l.024-.1c.147-.68.303-1.354.469-2.016l.019-.076.231-.861.012-.044c.117-.432.229-.865.349-1.284l.003-.003v-.002l.001-.005.016-.054.228-.735.002-.008.016-.05v-.004l.135-.438.221-.714.064-.206-.466-.163-.087-.032-.166-.058c-1.009-.337-2.053-.576-3.123-.716l-.168-.02c-.686-.084-1.381-.123-2.083-.121h-.001c-.407.005-.816.018-1.226.052-.341.028-.682.066-1.024.115-.514.077-1.016.184-1.511.301l-.46.124-.721.223-.286.09-.501.181c-.324.122-.642.258-.953.399l-.432.193c-.421.21-.834.434-1.232.673l-.459.3-.537.365-.187.126-.568.437c-.176.139-.351.283-.518.432-.204.178-.402.354-.597.538l-.35.352c-.312.317-.603.652-.889.992l-.429.536c-.247.315-.487.635-.709.968l-.112.167-.33.55-.014.026-.017.025-.222.373-.027.05-.029.052-.001.003-.001.005c-.43.793-.791 1.625-1.088 2.484l-.119.372c-.135.419-.253.845-.354 1.274l-.122.51v.002l-.002.002v.003c-.088.438-.158.878-.21 1.33l-.017.167-.016.211-.001.02c-.032.327-.062.649-.072.979l-.003.489-.001.045.008.522.005.401c.027.509.073 1.024.15 1.544.06.4.145.789.23 1.181l.005.021.036.183.174.64c.214.773.474 1.522.791 2.24.24.545.506 1.075.802 1.586.54.939 1.178 1.809 1.881 2.614 1.481 1.696 3.288 3.084 5.315 4.06 1.151.552 2.372.967 3.64 1.243 1.219.267 2.474.416 3.761.397.29-.006.581-.019.873-.034.436-.025.871-.061 1.31-.126.406-.06.796-.156 1.19-.245l.681-.141c.564-.153 1.114-.34 1.649-.546l.122-.041.643-.297c.67-.299 1.313-.643 1.93-1.024l.135-.08.519-.312.021-.013c-.541-1.725-1.009-3.502-1.411-5.331l-.092-.382z"/><polygon points="73.604,231.827 73.587,231.81 73.588,231.811 73.595,231.817 73.614,231.842" fill="none"/><path fill="#E8B783" d="M190.743 148.424c-.78-.304-1.608-.492-2.439-.589-.546-.066-1.096-.093-1.63-.093l-.598.016c-2.741.102-5.028.852-5.028.852-.485.176-.953.366-1.401.566-3.539 1.574-5.869 3.81-7.382 6.243-1.227 1.97-1.922 4.069-2.283 6.058l-.087.522c-.08.513-.143 1.016-.185 1.506-.144 1.652-.087 3.153.02 4.332.154 1.611.408 2.63.408 2.63.463-1.48.975-2.851 1.515-4.141 1.343-3.199 2.903-5.836 4.543-8.002 3.188-4.222 6.672-6.671 9.433-8.073 2.981-1.522 5.114-1.827 5.114-1.827z"/><path fill="#E8B783" d="M234.052 137.718l-.141-.146c-.478-.473-1.033-.894-1.677-1.226-1.516-.786-3.508-1.047-6.113-.168 0 0-3.084 1.144-4.683 3.451 0 0 5.24-3.048 11.614.385.58.314 1.17.685 1.766 1.113.609.437 1.224.931 1.843 1.501 0 0-.549-2.523-2.274-4.541-.103-.126-.216-.251-.335-.369z"/><path fill="#E8B783" d="M182.616 174.553c.188-.188.376-.374.587-.563l.274-.229c.191-.167.382-.332.592-.498l.369-.268c.199-.151.396-.297.61-.441l.45-.281c.214-.134.42-.269.645-.396l.534-.278c.223-.119.44-.239.677-.349l.617-.265c.234-.101.462-.203.709-.296l.704-.236.675-.228.004-.001.138-.041c.331-.086.651-.157.974-.217l.299-.053.647-.103.341-.039.582-.054.343-.021.554-.018.214-.007.084.004c.407.001.807.021 1.194.055l.206.017c.384.041.753.091 1.112.156l.171.032c.364.07.714.15 1.051.239l.088.026c.343.095.671.198.981.311l.026.01h.002l.006.003c.369.135.719.28 1.041.43l.015.006c.327.152.629.31.901.467-.5-1.863-2.043-5.843-6.303-6.812l-.013-.004c-.608-.135-1.27-.212-1.987-.212l-.533.015h-.007c-.629.033-1.299.122-2.013.271-8.058 1.698-8.473 8.487-8.381 10.752.197-.234.412-.472.647-.715l.173-.169z"/><path fill="#fff" d="M274.042 218.158l-.089-.231-.17-.424c-.7-1.554-1.49-2.737-2.161-3.571-.865-1.074-1.531-1.573-1.531-1.573.07-.427.114-.836.149-1.241.046-.528.071-1.043.066-1.537-.028-3.743-1.37-6.487-2.36-8.008-.156-.244-.306-.451-.44-.631-.515.477-1.04.945-1.57 1.407-10.008 8.759-21.717 15.034-34.779 18.73-9.003 2.548-18.643 3.88-28.831 3.905l.18.029s-5.946 1.581-6.864 7.59l.108.045-.018 3.954c.832 5.248 3.652 8.249 6.611 9.644 2.986.732 6.532 1.133 10.413 1.133 6.758 0 14.366-1.168 22.007-3.374l.038-.011.04-.013c10.195-2.679 24.142-10.034 33.716-18.481 2.179-1.925 4.133-3.905 5.766-5.901l.061-.076.112-.138c-.171-.473-.326-.896-.454-1.227z"/><path fill="#F1D1AC" d="M190.056 170.222l-.674.228.678-.225.139-.045-.139.041-.004.001z"/><path fill="#F1D1AC" d="M191.788 192.14l1.015-.694.442-.295 1.035-.68.5-.316c.343-.217.691-.435 1.045-.647l.562-.343 1.05-.619.636-.365 1.049-.59.714-.392 1.039-.558c.261-.141.53-.278.798-.413.342-.177.678-.353 1.028-.526l.89-.438c.334-.163.671-.331 1.014-.488l.991-.468.987-.455 1.11-.493.944-.414c.401-.174.818-.344 1.229-.516l.612-.26c1.139-4.389 4.783-15.375 13.091-17.562.893-.244 1.704-.393 2.484-.498l.586-.086c-.174-.59-.33-1.207-.448-1.856-.818-4.436.087-8.322 2.034-8.685 1.503-.312 2.987 1.755 3.288 2.505.747 1.288 1.366 2.973 1.722 4.882.325 1.747.364 3.393.196 4.789.19.156.358.332.532.501 2.234 2.162 2.978 5.451 3.188 7.82.746-.168 1.507-.33 2.271-.494l.584-.127.123-.026.331-.067c.942-.196 1.899-.393 2.874-.582l.045-.008c2.197-.434 4.467-.848 6.805-1.238-1.336-.748-2.161-1.06-2.161-1.06-6.04-2.722-7.005-3.753-7.637-13.104-.226-3.366-.409-7.807-.778-13.813-.049-.78-.117-1.521-.19-2.244l-.058-.513c-.08-.684-.17-1.352-.273-1.989l-.031-.182-.039-.197c-.09-.499-.188-.985-.289-1.457l-.139-.618c-.12-.502-.247-.991-.384-1.457l-.222-.7-.259-.763-.265-.729v-.003c-.95-1.092-2.031-2.038-3.258-2.803l-.238-.134-.05-.029-.18-.102-.061-.033-.54-.297-.583-.278c-1.785-.803-3.711-1.208-5.73-1.254-1.112-.026-2.254.058-3.409.249-.541.087-1.075.202-1.62.334-1.411.346-2.839.835-4.27 1.471l-1.376 1.233c-.387.349-.779.696-1.173 1.043l-.191.17c-.4.346-.806.688-1.212 1.027l-.203.168c-.41.331-.822.655-1.243.967l-.22.161c-.423.312-.854.605-1.288.89l-.22.137c-.439.283-.894.55-1.358.794l-.191.101c-.479.246-.963.476-1.464.678l-.132.049c-.527.207-1.06.39-1.61.534-.926.244-1.863.402-2.807.525-1.54.198-3.102.265-4.684.227-.529-.013-1.062-.04-1.593-.071l-.565-.03c-1.388-.093-2.789-.239-4.2-.398l-1.778-.202c-.958-.111-1.924-.214-2.891-.312l-.569-.062c-.781.143-1.562.318-2.345.516l-.172.044c-2.264.589-4.513 1.423-6.704 2.5l-.365.172c-.341.174-.679.356-1.016.541-.454.246-.905.505-1.354.771-3.132 1.876-6.104 4.268-8.782 7.17-1.086 1.177-2.085 2.403-3.006 3.663-1.416 1.937-2.628 3.959-3.649 6.038l-.168.348c-.543 1.126-1.026 2.269-1.452 3.421-.152.411-.306.822-.442 1.236l-.03.084c-.442 1.349-.804 2.706-1.089 4.07l-.042.244-.104.591c-.114.631-.216 1.262-.301 1.892-.084.655-.159 1.306-.207 1.96l-.031.422c-.025.398-.045.791-.057 1.188-.039 1.454.018 2.896.163 4.313.037.357.065.717.114 1.069.935 2.252 2.123 4.237 3.467 6.011 5.104 6.74 12.556 10.222 17.85 11.93 2.053.616 4.183 1.133 6.38 1.542l.062.087.003.002.01-.005.123-.122.739-.715.271-.259.797-.733.276-.248c.273-.245.553-.496.843-.74l.287-.246c.291-.249.586-.497.888-.746l.301-.244.932-.742.325-.256.967-.729.358-.261c.325-.243.653-.479.993-.715l.403-.286zm34.335-55.962c2.602-.88 4.595-.619 6.114.167.643.331 1.198.752 1.677 1.226l.141.146.335.37c1.725 2.018 2.276 4.541 2.276 4.541-.619-.571-1.236-1.063-1.843-1.502-.598-.428-1.186-.8-1.767-1.113-6.373-3.432-11.613-.385-11.613-.385 1.597-2.308 4.68-3.45 4.68-3.45zm-49.926 22.141c-1.64 2.167-3.197 4.803-4.543 8.002-.54 1.291-1.055 2.662-1.515 4.14 0 0-.257-1.018-.406-2.629-.112-1.179-.164-2.679-.021-4.331.041-.491.104-.993.185-1.507l.085-.522c.366-1.988 1.062-4.086 2.286-6.057 1.515-2.435 3.842-4.669 7.381-6.244.449-.199.916-.39 1.401-.566 0 0 2.285-.75 5.027-.852l.6-.016c.537 0 1.084.026 1.628.091.831.099 1.66.286 2.441.59 0 0-2.135.304-5.111 1.822-2.766 1.408-6.249 3.859-9.438 8.079zm4.554 20.294c-.226.094-.398.116-.496.026-.354-.159.142-1.552 1.54-3.206-.089-2.267.327-9.056 8.381-10.754.716-.15 1.385-.237 2.014-.27h.007l.532-.015c.72 0 1.38.077 1.987.212l.014.004c4.26.968 5.802 4.947 6.303 6.812 1.386.796 2.08 1.598 1.861 1.771-.069.171-.291.231-.625.227-.34.222-1.08.337-2.104.445-2.048.218-5.242.404-8.74 1.332l-.724.189c-5.219 1.383-9.097 3.591-9.95 3.227z"/><polygon fill="#F1D1AC" points="199.07,170.519 199.069,170.519 199.075,170.521"/><path fill="#F1D1AC" d="M194.155 169.668l-.214.007.296-.003-.082-.004z"/><path fill="#F1D1AC" d="M277.056 230.311c-3.289 3.75-6.828 6.875-10.402 9.473-1.788 1.295-3.576 2.447-5.352 3.495-3.942 2.335-7.786 4.095-11.201 5.392-7.54 2.861-13.022 3.548-13.022 3.548 4.547 1.823 9.93 1.175 13.576.343 2.507-.568 4.198-1.224 4.198-1.224.117 1.57.1 3.032-.012 4.408-.124 1.522-.379 2.922-.732 4.218l-.026.11-.002.009c-.446 1.602-1.04 3.036-1.744 4.32l-.228.42.26-.19c1.259-.904 2.495-1.862 3.718-2.86l.026-.021c.92-.749 1.824-1.529 2.714-2.332 1.492-1.356 2.961-2.77 4.375-4.285l.003-.003.007-.007.248-.272c1.396-1.562 2.684-3.15 3.867-4.752 1.562-2.111 2.938-4.245 4.158-6.362l.09-.153c.296-.522.587-1.041.866-1.554l.078-.15.261-.514c.388-.74.77-1.476 1.126-2.207l.253-.526c.186-.386.358-.771.531-1.152l.393-.888.416-.958c.24-.579.472-1.155.692-1.722l.253-.669c.168-.439.329-.877.481-1.307l.21-.602.062-.188c.191-.543.37-1.081.54-1.609l-.681.771z"/><path fill="#F1D1AC" d="M179.313 200.895c-1.005.482-2.108 1.053-3.263 1.709-3.083 1.749-6.532 4.124-9.474 7.172-.366.382-.727.775-1.076 1.177-.596.685-1.156 1.411-1.688 2.159l-.185.252-.234.351c-.2.302-.395.608-.582.918l-.227.374c-.245.425-.483.854-.704 1.296-.217.435-.421.88-.611 1.33-1.515 3.622-2.113 7.806-1.173 12.593l.003-.052.002-.036.014-.186.003-.042.025-.261.008-.061.047-.383.014-.094.073-.492.001-.004.102-.557.023-.121.135-.624.023-.104.162-.631.025-.101.215-.723.05-.155c.082-.254.169-.507.265-.77v-.003l.014-.026c.145-.394.314-.792.495-1.196l.212-.459.061-.127.001-.005c.158-.317.33-.637.517-.957.15-.261.313-.519.484-.779l.167-.243c.137-.198.28-.397.43-.591l.183-.238c.204-.259.416-.511.644-.761l.02-.021v0s-3.159 10.496-.267 18.146l-.013-.065-.007-.051-.019-.16-.005-.042-.032-.287-.005-.046-.034-.394-.003-.044-.03-.49-.002-.045-.018-.57v-.68l.001-.059.028-.726.003-.059.006-.126.002-.005c.02-.28.047-.572.088-.865l.007-.058c.038-.289.084-.578.139-.874l.052-.27.036-.191.001-.003c.055-.242.119-.487.188-.73l.009-.041.002-.003c.098-.338.22-.675.353-1.006l.107-.263c.144-.331.298-.656.479-.969l.007-.014h.002s.052 2.479.481 5.384c.067.458.147.925.235 1.398.06.314.118.628.187.942-.191-3.157.014-6.17.506-9.017.135-.784.299-1.555.477-2.315l.076-.33c.174-.717.365-1.422.574-2.116l.12-.389c.212-.688.437-1.365.678-2.026l.114-.305c.514-1.383 1.083-2.709 1.69-3.975l.133-.277c.229-.472.473-.931.713-1.387l.188-.365.176-.321c.306-.564.621-1.112.938-1.647l.155-.253c.331-.549.666-1.085 1.001-1.598l.018-.03c.426-.648.854-1.271 1.28-1.869.311-.436.621-.859.929-1.268l.359-.461c.742-.96 1.464-1.83 2.142-2.607 2.034-2.33 3.655-3.814 4.227-4.312-.362.141-.784.311-1.252.506-.712.307-1.529.67-2.421 1.1z"/><path fill="#F1D1AC" d="M235.054 171.596s-.051-.253-.193-.623c-.538-1.412-2.4-4.663-7.993-3.416-5.847 1.307-7.24 6.327-7.545 8.018-.064.351-.085.569-.085.569l.178.118c.674-.732 2.11-.832 3.515-.17.64.302 1.169.72 1.555 1.18l.001.003c.594.709.838 1.521.562 2.181-.058.141-.141.266-.238.377 0 0 .24.059.64.123 1.703.28 6.384.67 8.453-2.825.098-.165.204-.325.29-.508-.518-.188-.875-.866-.981-1.712-.053-.402-.051-.848.023-1.3.236-1.386 1.054-2.29 1.818-2.015z"/><path fill="#F1D1AC" d="M211.123 218.709c-3.729 1.265-7.004 2.271-9.552 3.013l.44.001c4.409 0 11.409-.209 19.708-1.76 15.104-2.82 34.544-10.097 50.691-28.761l.039-.071v-.002l-.005-.026c-.107-1.38-.599-3.839-2.573-5.555-.345-.3-.738-.575-1.177-.82l-.22-.097c-.508-.209-.958-.429-1.379-.646-.345-.159-.676-.327-.972-.493l-.046-.052c-.919 1.747-2.022 3.437-3.293 5.072-.448.577-.935 1.144-1.423 1.708-4.455 5.142-10.471 9.713-17.086 13.686-10.992 6.598-23.575 11.557-33.152 14.803z"/><path fill="#F1D1AC" d="M111.497 204.178c-.149.168-.299.331-.435.515l-.146.204c-.157.228-.308.464-.445.71l-.071.122c-.169.309-.323.631-.465.958l-.001.002-.018.042v.004l-.057.144-.095.24-.235.608-.002.006-.002.007-.005.017-.024.08-.025.077c-.108.322-.204.64-.293.953-.249.884-.423 1.716-.544 2.405l-.113.683c-.065.445-.105.792-.124.962l-.001.014-.012.115v0l-.005-.131-.032-.771c-.026-.539-.06-1.08-.066-1.619-.009-.453.008-.9.016-1.35l.008-.424.016-.621.036-.575.001-.015v-.004l.012-.213.004-.057.043-.704.018-.271.014-.163.001-.029.019-.229.031-.281.112-1.021.005-.057.082-.754.002-.013.005-.018.01-.073c.068-.514.15-1.021.231-1.527l.021-.139.021-.141.045-.289c.139-.824.294-1.644.467-2.445l.024-.1c.147-.68.303-1.352.469-2.015l.019-.077.231-.86.012-.046c.117-.431.229-.862.349-1.281l.003-.006v-.001l.001-.006.016-.051.228-.736.002-.01.016-.049v-.003l.136-.44.22-.711.064-.207-.466-.164-.087-.032-.166-.057c-1.009-.338-2.053-.578-3.123-.717l-.168-.02c-.686-.084-1.381-.124-2.083-.121h-.001c-.407.005-.816.017-1.226.052-.341.028-.682.065-1.024.116-.514.076-1.016.183-1.511.3l-.459.124c-.244.068-.483.146-.722.223l-.286.09-.501.18c-.324.124-.642.258-.953.401l-.432.191c-.421.21-.834.433-1.232.673l-.459.299-.537.366-.187.126-.568.438c-.176.139-.351.283-.518.43-.204.179-.402.354-.597.539l-.35.354c-.312.316-.604.649-.89.99l-.429.535c-.247.316-.486.637-.709.969l-.111.167-.331.552-.014.024-.017.025-.221.372-.028.05-.029.053-.001.003-.001.005c-.43.796-.791 1.629-1.087 2.487l-.121.369c-.133.419-.251.844-.354 1.275l-.122.509v.002l-.001.002.138.298c.157.355.317.695.482 1.027l.058.115.058.109c.172.34.347.665.522.98.536.965 1.084 1.82 1.612 2.57l.234.332.06.079.07.091c.396.536.773 1.002 1.123 1.412.554.645 1.03 1.132 1.367 1.457l.195.187.136.122.206.182-.168-.53c-.427-1.265-.722-2.53-.91-3.78l-.013-.074-.021-.146c-.114-.801-.2-1.599-.231-2.385.119.29.244.565.369.84.188.409.378.812.574 1.195l.068.139.025.051c.847 1.632 1.746 2.981 2.564 4.06.98 1.29 1.842 2.18 2.351 2.666l.26.243.224.195c-.491-1.342-.82-2.684-1.038-4.013-.074-.446-.146-.896-.194-1.34-.061-.565-.103-1.123-.123-1.678l.001.002v-.002c.361.906.751 1.738 1.155 2.519l.029.059c1.448 2.805 3.056 4.8 4.14 5.965l.124.127.502.514.273.265.244.224.127.111-.063-.189-.189-.561c-.22-.674-.392-1.343-.543-2.014-.102-.445-.198-.893-.268-1.338-.069-.424-.121-.843-.165-1.263l-.021-.226-.057-.648-.009-.136-.005-.096c-.034-.554-.054-1.102-.053-1.646l.001.001v-.001c.147.342.302.673.457.993l.355.706.024.048.041.08.07.142c.147.276.295.541.446.805.279.489.56.948.84 1.377.343.527.682 1.011 1.011 1.451.186.25.366.482.543.705.226.279.441.539.646.775.186.216.359.404.525.581l.122.133.427.437.268.262.422.383.038.031.125.065v-.296c-.001-.867.01-1.745.031-2.617l.007-.314c.027-.982.064-1.962.113-2.909l.018-.365.004-.062.02-.33.025-.488c.044-.749.091-1.477.14-2.166.045-.623.091-1.213.136-1.769l.015-.179.021-.252.021-.248.002-.029.035-.414.003-.037.033-.363.053-.566.005-.052.039-.425.052-.532.001-.007v-.006l.027-.263.002-.019.023-.23.048-.454.013-.112.005-.04.015-.127.01-.089.002-.012-.012.012-.16.2z"/><path fill="#F1D1AC" d="M239.952 231.382c1.375-.677 2.575-1.232 3.489-1.772 1.845-1.072 2.819-1.76 2.726-1.958-.093-.201-1.246.102-3.25.823l-3.631 1.239c-.693.261-1.475.458-2.275.716-.807.247-1.65.537-2.557.75-1.777.48-3.814.972-5.98 1.5l-3.312.688-3.552.62c-4.869.75-10.289 1.2-15.899.871-2.957-.148-6.989-.982-9.968-2.215l-.108-.047c.918-6.009 6.865-7.587 6.865-7.587l-.182-.029-.307.003c-.895 0-1.683-.008-2.354-.016l-1.262-.01c-.341 0-.587.004-.728.014-3.676.202-5.29 3.537-5.812 4.964-.076.202-.142.413-.207.628-.377 1.263-.554 2.69-.468 4.164.158 2.749 1.231 5.657 3.64 7.947 1.611 1.547 4.227 2.76 7.52 3.569-2.961-1.395-5.781-4.395-6.611-9.644 3.273.95 6.993 1.315 9.773 1.461 5.957.349 11.597-.223 16.61-1.16 1.246-.263 2.464-.507 3.644-.775l3.42-.884c2.142-.645 4.117-1.248 5.957-1.901.924-.296 1.762-.662 2.567-.993.801-.336 1.567-.618 2.252-.966z"/><path fill="#664F45" d="M226.675 164.048c3.049-.308 5.238.4 6.787 1.637.167-1.396.13-3.041-.191-4.79-.356-1.909-.976-3.596-1.724-4.885-.3-.749-1.785-2.814-3.289-2.503-1.943.363-2.854 4.248-2.032 8.686.122.649.275 1.265.449 1.855z"/><path fill="#664F45" d="M191.058 173.312c3.517-.984 6.742-.556 8.941-.189 1.006.167 1.794.321 2.305.321.334.005.555-.057.625-.227.221-.174-.474-.976-1.861-1.772-.272-.157-.574-.314-.899-.468l-.016-.005c-.322-.152-.67-.297-1.04-.433l-.011-.003-.022-.009c-.311-.111-.641-.215-.983-.31l-.087-.026c-.337-.09-.688-.171-1.053-.24l-.17-.031c-.359-.062-.729-.116-1.112-.157l-.206-.017c-.389-.035-.786-.054-1.196-.056l-.294.002-.558.019-.341.02-.583.054-.341.04-.646.102-.299.052c-.322.06-.646.132-.972.216l-.139.047-.679.223-.704.236-.71.297-.615.264c-.236.111-.455.232-.678.35l-.533.277c-.226.126-.43.264-.644.397l-.451.28c-.216.146-.409.294-.609.441l-.368.268c-.212.164-.401.331-.594.499l-.273.23c-.21.187-.401.376-.585.562l-.175.166c-.233.241-.451.479-.646.714-1.398 1.655-1.896 3.049-1.541 3.206.099.089.271.068.496-.025 1.302-.518 4.657-3.6 9.568-5.112l.699-.203z"/><path fill="#664F45" d="M233.246 174.934c.109.847.468 1.522.984 1.711.772.273 1.582-.635 1.818-2.023l.044-.359v-.004c.108-1.249-.303-2.393-.999-2.642-.765-.276-1.581.631-1.819 2.019-.08.449-.082.892-.028 1.298z"/><path fill="#664F45" d="M219.696 178.809c.389.483.935.93 1.605 1.248 1.42.672 2.888.562 3.544-.202.097-.113.18-.237.236-.378.276-.66.035-1.475-.562-2.183l-.001-.002c-.385-.459-.913-.878-1.555-1.18-1.402-.663-2.841-.562-3.515.171-.107.123-.204.253-.266.406-.267.64-.045 1.422.512 2.117v.003h.002z"/><g fill="#664F45"><path d="M272.455 191.138v-.003l-.006-.025-.066.133.03-.034.042-.071zM274.384 219.535l-.061.075c-1.632 1.996-3.587 3.976-5.767 5.899-9.574 8.449-23.519 15.803-33.714 18.481l-.04.013-.038.011c-7.643 2.21-15.249 3.375-22.007 3.375-3.883 0-7.428-.4-10.415-1.132-3.292-.811-5.904-2.023-7.516-3.571-2.409-2.288-3.479-5.198-3.641-7.946-.087-1.475.09-2.902.47-4.164.063-.214.129-.425.206-.628.522-1.423 2.137-4.757 5.812-4.964.141-.008.387-.012.727-.012l1.262.009c.675.007 1.462.017 2.355.017l.308-.004c10.19-.026 19.829-1.357 28.83-3.905 13.062-3.696 24.773-9.974 34.778-18.731.531-.461 1.057-.93 1.574-1.407l4.877-9.703c-16.143 18.637-35.563 25.907-50.658 28.726-8.304 1.551-15.301 1.76-19.709 1.76l-.441-.004-3.176-.021c-.384 0-.692.006-.926.019-1.149.063-2.215.339-3.188.783-1.989.905-3.582 2.524-4.683 4.542-1.356 2.488-1.956 5.578-1.614 8.689.282 2.562 1.207 5.129 2.88 7.378l.201.274c.19.247.396.486.606.722.284.323.579.639.898.942 3.675 3.533 10.894 5.603 20.184 5.603 6.279 0 13.516-.962 21.231-3.049 22.628-7.06 32.698-15.906 37.128-21.792.323-.431.618-.846.888-1.24 1.559-2.327 2.177-4.045 2.392-4.782l.025-.099.075-.296-.113.132z"/></g><path fill="#132034" d="M234.107 58.51c-2.076-1.826-4.387-3.115-6.832-3.981-.444-.106-.889-.214-1.345-.288-.229-.116-.467-.227-.702-.331-2.136-.541-4.355-.792-6.614-.817-11.197-.112-23.273 5.39-30.114 9.091l-1.134.642c-.573.329-1.148.663-1.732 1.009-.979.577-1.971 1.179-2.98 1.802l-.439.274-2.213-2.033-1-.917-.923-.849-.4-.366-8.416-7.717-.731-.67-.903-.828-.14.05-2.036.72-2.353.835c-1.41-.463-3.051-.717-4.914-.728-3.736-.027-8.359.953-13.519 2.959-5.163 2-10.862 5.004-16.817 8.908-11.919 7.801-24.865 19.184-36.966 33.166-4.222 4.878-8.112 9.811-11.648 14.717-3.431 4.756-6.527 9.491-9.258 14.119-5.546 9.397-9.586 18.379-11.917 26.24-1.555 5.239-2.343 9.974-2.362 13.951-.018 2.892.369 5.371 1.091 7.374.233.646.51 1.229.81 1.78.623 1.159 1.379 2.133 2.3 2.933l9.227 7.626.99.817.047-.068c.22-.32.438-.638.667-.951l.061-.086.252-.331c.217-.286.435-.572.659-.854l.426-.513.412-.5.195-.219.459-.508.656-.702.396-.404.06-.056c.237-.234.475-.469.717-.693l.459-.432c.249-.227.506-.454.767-.677l.465-.396c.266-.225.538-.438.812-.651l.473-.367c.285-.219.577-.425.869-.633l.464-.33.176-.122.028-.017c.248-.167.503-.327.757-.486l.42-.272.649-.385.565-.331.212-.121c.48-.268.969-.523 1.463-.766l.476-.228.516-.239.2-.095.309-.138.641-.265.158-.065.745-.296.704-.26c.29-.103.582-.208.877-.303l.367-.122.377-.111.873-.255.774-.205.623-.155.255-.053.285-.066.157-.027c1.045-.167 2.198-.296 3.467-.352l.196-.01c1.283-.049 2.681-.01 4.162.126.352.032.706.062 1.07.108l.175-.437c.603-1.461 1.22-2.892 1.845-4.298 3.664-8.205 7.771-15.484 12.082-21.917 1.472-2.197 2.968-4.299 4.478-6.301 6.287-8.348 12.815-15.04 18.883-20.329 1.349-1.174 2.674-2.281 3.969-3.32 1.761-1.413 3.468-2.706 5.1-3.881 1.326-.955 2.604-1.832 3.82-2.636 2.024-1.34 3.882-2.471 5.521-3.415.505-.292.993-.568 1.457-.822.719-.397 1.38-.749 1.985-1.062-.553.009-1.109.032-1.677.065-.528.037-1.065.089-1.604.153l-.408.051c-.544.07-1.091.151-1.646.251-1.05.19-2.117.428-3.202.733-.362.102-.726.211-1.093.329 2.578-1.747 5.163-3.137 7.683-4.249 1.674-.74 3.321-1.36 4.916-1.87 2.198-.703 4.293-1.205 6.236-1.566 1.307-.239 2.541-.416 3.688-.542 1.156-.126 2.223-.202 3.185-.243 3.363-.144 5.433.127 5.433.127-.553-.61-1.216-1.121-1.927-1.551-1.289-.774-2.722-1.269-3.97-1.59-.492-.126-.957-.232-1.364-.308-.326-.061-.624-.112-.871-.148.55-.163 1.096-.311 1.633-.449.573-.147 1.135-.282 1.694-.4 4.752-1.02 9.001-1.104 12.225-.894 3.889.257 6.293.939 6.293.939-.667-.992-1.578-1.799-2.548-2.456-.71-.479-1.443-.878-2.139-1.202 1.309.144 2.562.331 3.753.544 3.155.568 5.872 1.342 8.023 2.083.697.239 1.339.473 1.912.699l.47.188c1.983.798 3.103 1.405 3.103 1.405-.442-1.061-1.199-2.018-2.047-2.861-.212-.211-.427-.421-.647-.613l.093.031.437.086.564.126c.845.197 2.145.544 3.688 1.097l.226.082.642.24c.53.204 1.079.436 1.647.687.526.237 1.062.489 1.609.77l.846.448c.605.334 1.206.697 1.81 1.091.615.401 1.228.837 1.826 1.307l.356.281c.437.354.862.732 1.282 1.128.788.745 1.53 1.56 2.212 2.452.819 1.069 1.547 2.246 2.139 3.547l.094.225c.271-.376.755-1.047 1.378-1.962 5.161-7.602 20.151-32.059 7.904-44.449z"/><path fill="#2F83C1" d="M161.615 63.208l-.813-4.035 1.504-4.757.785-.279c-1.41-.463-3.05-.716-4.914-.727-3.736-.027-8.358.953-13.519 2.959-5.164 2-10.862 5.003-16.817 8.907-11.918 7.802-24.865 19.185-36.965 33.167-4.223 4.878-8.113 9.811-11.649 14.717-3.431 4.756-6.527 9.49-9.257 14.119-5.546 9.397-9.587 18.378-11.918 26.239-1.554 5.239-2.343 9.974-2.361 13.951-.02 2.891.369 5.371 1.09 7.373.233.646.511 1.229.81 1.781.623 1.158 1.38 2.133 2.299 2.932l9.228 7.626.99.818.048-.066c.219-.322.438-.641.666-.954l.061-.085.252-.332c.217-.286.435-.572.659-.853l.426-.513.412-.5.195-.219.46-.508.655-.702.396-.404.06-.055c.236-.235.474-.471.715-.694l.46-.432c.25-.227.506-.455.767-.678l.466-.396c.266-.225.537-.438.811-.651l.473-.367c.286-.219.577-.425.869-.633l.465-.33.176-.122.007-.034c1.319-5.672 3.565-11.928 6.651-18.535 3.791-8.113 8.842-16.749 15.016-25.485 3.885-5.497 8.209-11.032 12.938-16.498 6.118-7.064 12.449-13.471 18.771-19.122 4.261-3.808 8.515-7.252 12.703-10.327.394-.292.793-.591 1.188-.876 1.116-.803 2.229-1.571 3.332-2.319 2.405-1.627 4.782-3.127 7.112-4.477l-1.377-1.307-.226-.214-1.69-1.602-9.698-9.202-.789-7.312-.105-.095 5.778-2.495 12.404 4.603z"/><polygon fill="#4F9DD6" points="164.326,64.214 164.646,64.333 164.64,64.293"/><path fill="#FFD250" d="M167.62 52.535l-5.313 1.882 2.333 9.877-15.432-5.682-5.777 2.495.105.095 20.064 18.051.156-.127.212-.169c.507-.417 1.019-.831 1.532-1.241l.539-.435c.742-.586 1.487-1.165 2.238-1.74l-8.529-7.711 12.854 4.5.042-.03 1.025-.73-2.151-8.542 6.27 5.724.063-.041c.438-.293.869-.568 1.304-.852l.135-.086.209-.138.224-.145.554-.36.109-.07c.616-.394 1.224-.771 1.83-1.148l-14.596-13.377z"/><path fill="#4F9DD6" d="M162.382 54.729l-.074-.311.074.311z"/><path fill="#4F9DD6" d="M162.308 54.419l.785-.28c-1.41-.462-3.05-.716-4.914-.726-3.737-.027-8.358.953-13.519 2.959-5.164 2-10.862 5.003-16.817 8.908-11.919 7.801-24.865 19.183-36.966 33.166-4.222 4.877-8.112 9.811-11.648 14.716l18.87 18.23c3.868-5.437 8.145-10.896 12.811-16.288 6.238-7.207 12.696-13.743 19.164-19.523 6.267-5.596 12.534-10.461 18.643-14.52l-4.389-12.547-.79-7.311-.105-.093 5.778-2.497 12.407 4.599-.813-4.035 1.503-4.758z"/><polygon fill="#132034" points="162.308,54.419 160.802,59.173 161.615,63.208 164.64,64.293"/><polygon fill="#132034" points="159.749,67.829 172.603,72.329 168.276,75.539"/><polygon fill="#132034" points="171.516,63.027 173.669,71.568 177.785,68.75"/><path fill="#fff" d="M217.103 54.373c.746-.12 1.478-.214 2.2-.284 2.052-.202 4-.187 5.872.051l.302.031.023.002.074.009.185.03.17.029c-.229-.116-.467-.227-.704-.331-2.134-.541-4.355-.792-6.612-.817-11.197-.112-23.274 5.39-30.114 9.092l-1.135.641c-.573.329-1.147.663-1.731 1.009-.979.577-1.973 1.179-2.981 1.802l-.437.274c-.608.378-1.212.755-1.83 1.148l-.109.069-.553.361-.226.145-.209.137-.134.087c-.434.281-.863.558-1.302.849l-.065.043-.039.025-.318.206-.054.036-.236.161c-.672.447-1.34.905-2.004 1.365l-1.39.969-.075.052-1.024.73-.042.031c-1.11.798-2.213 1.607-3.31 2.435l-.344.257-.29.223-.269.208-.113.088c-.749.575-1.498 1.153-2.238 1.74l-.539.436c-.514.41-1.025.823-1.532 1.24l-.212.169-.156.128c-1.416 1.162-2.816 2.351-4.204 3.558-2.294 1.994-4.554 4.039-6.774 6.141l-.859.822c-5.811 5.557-11.358 11.439-16.626 17.49-5.562 6.392-10.805 12.967-15.714 19.534-2.677 3.402-4.966 6.44-6.821 8.985-3.728 5.108-5.723 8.229-5.62 8.28.045.036.381-.357.968-1.101-.475.706-.951 1.411-1.418 2.111 8.138-11.033 17.262-22.427 27.22-33.323 6.048-6.611 12.397-13.044 19.022-19.092 2.907-2.652 5.863-5.229 8.87-7.721.963-.798 1.931-1.586 2.906-2.366.484-.388.975-.767 1.463-1.149l.83-.65c.522-.407 1.046-.81 1.57-1.21.516-.391 1.028-.784 1.547-1.168l.809-.603c.655-.486 1.317-.965 1.98-1.44.393-.286.787-.572 1.187-.853l.003-.001c1.25-.888 2.51-1.75 3.776-2.6l.315-.212.593-.395.787-.524.296-.2.042-.023.534-.344.112-.071.064-.041c.553-.358 1.106-.713 1.65-1.059l.301-.193.532-.332 1.902-1.182.519-.322.27-.16.536-.324c.739-.444 1.474-.884 2.195-1.305.661-.385 1.301-.744 1.947-1.109 3.645-2.069 7.09-3.851 10.315-5.326 6.193-2.819 11.622-4.611 16.476-5.398z"/></svg>