<?xml version="1.0" encoding="utf-8"?>
<!-- Generator: Adobe Illustrator 15.1.0, SVG Export Plug-In . SVG Version: 6.00 Build 0)  -->
<!DOCTYPE svg PUBLIC "-//W3C//DTD SVG 1.1//EN" "http://www.w3.org/Graphics/SVG/1.1/DTD/svg11.dtd">
<svg version="1.1" id="Layer_1" xmlns="http://www.w3.org/2000/svg" xmlns:xlink="http://www.w3.org/1999/xlink" x="0px" y="0px"
	 width="575.5px" height="562.5px" viewBox="0 0 575.5 562.5" enable-background="new 0 0 575.5 562.5" xml:space="preserve">
<rect x="143.5" y="0.5" fill="#FFFFFF" width="287" height="253"/>
<rect x="143.5" y="0.5" fill="none" stroke="#000000" stroke-linecap="round" stroke-linejoin="round" width="287" height="253"/>
<text transform="matrix(1 0 0 1 148.5 16.5)" font-family="'Helvetica'" font-size="12">document tree</text>
<rect x="0.5" y="290.5" fill="#FFFFFF" width="283" height="272"/>
<rect x="0.5" y="290.5" fill="none" stroke="#000000" stroke-linecap="round" stroke-linejoin="round" width="283" height="272"/>
<text transform="matrix(1 0 0 1 5.5 306.5)" font-family="'Helvetica'" font-size="12">shadow tree</text>
<rect x="292.5" y="290.5" fill="#FFFFFF" width="283" height="272"/>
<rect x="292.5" y="290.5" fill="none" stroke="#000000" stroke-linecap="round" stroke-linejoin="round" width="283" height="272"/>
<text transform="matrix(1 0 0 1 297.5 306.5)" font-family="'Helvetica'" font-size="12">shadow tree</text>
<path stroke="#000000" d="M233.38,503.844l-2.568-8.147l-4.725,3.697L233.38,503.844z"/>
<path stroke="#000000" d="M179.519,497.6l2.998-8.001l-6,0.002L179.519,497.6z"/>
<path stroke="#000000" d="M323.519,189.6l2.998-8.001l-6,0.002L323.519,189.6z"/>
<path stroke="#000000" d="M521.38,503.844l-2.567-8.147l-4.726,3.697L521.38,503.844z"/>
<path stroke="#000000" d="M467.52,497.6l2.997-8.001l-6,0.002L467.52,497.6z"/>
<circle fill="#008040" cx="467.5" cy="527" r="27"/>
<circle fill="none" stroke="#000000" stroke-linecap="round" stroke-linejoin="round" cx="467.5" cy="527" r="27"/>
<circle fill="#008040" cx="539.5" cy="527" r="27"/>
<circle fill="none" stroke="#000000" stroke-linecap="round" stroke-linejoin="round" cx="539.5" cy="527" r="27"/>
<text transform="matrix(1 0 0 1 519.2188 524)" fill="#FFFFFF" font-family="'Helvetica'" font-size="12">shadow</text>
<text transform="matrix(1 0 0 1 528.5586 538)" fill="#FFFFFF" font-family="'Helvetica'" font-size="12">host</text>
<circle fill="#008040" cx="323.5" cy="219" r="27"/>
<circle fill="none" stroke="#000000" stroke-linecap="round" stroke-linejoin="round" cx="323.5" cy="219" r="27"/>
<circle fill="#008040" cx="179.5" cy="527" r="27"/>
<circle fill="none" stroke="#000000" stroke-linecap="round" stroke-linejoin="round" cx="179.5" cy="527" r="27"/>
<circle fill="#008040" cx="251.5" cy="527" r="27"/>
<circle fill="none" stroke="#000000" stroke-linecap="round" stroke-linejoin="round" cx="251.5" cy="527" r="27"/>
<path stroke="#000000" d="M377.38,195.844l-2.566-8.149l-4.727,3.698L377.38,195.844z"/>
<path stroke="#000000" d="M251.545,189.6l2.994-8.002l-6,0.004L251.545,189.6z"/>
<path stroke="#000000" d="M197.65,195.868l7.291-4.454l-4.727-3.696L197.65,195.868z"/>
<path stroke="#000000" d="M314.408,99.035l0.369-8.536l-5.704,1.862L314.408,99.035z"/>
<path stroke="#000000" d="M263.718,100.251l6.051-6.032l-5.458-2.491L263.718,100.251z"/>
<circle fill="#0080FF" cx="293.5" cy="35" r="27"/>
<circle fill="none" stroke="#000000" stroke-linecap="round" stroke-linejoin="round" cx="293.5" cy="35" r="27"/>
<text transform="matrix(1 0 0 1 268.0503 39)" fill="#FFFFFF" font-family="'Helvetica'" font-size="12">document</text>
<circle fill="#008040" cx="251.5" cy="127" r="27"/>
<circle fill="none" stroke="#000000" stroke-linecap="round" stroke-linejoin="round" cx="251.5" cy="127" r="27"/>
<circle fill="#008040" cx="323.5" cy="127" r="27"/>
<circle fill="none" stroke="#000000" stroke-linecap="round" stroke-linejoin="round" cx="323.5" cy="127" r="27"/>
<circle fill="#008040" cx="179.5" cy="219" r="27"/>
<circle fill="none" stroke="#000000" stroke-linecap="round" stroke-linejoin="round" cx="179.5" cy="219" r="27"/>
<text transform="matrix(1 0 0 1 159.2192 216)" fill="#FFFFFF" font-family="'Helvetica'" font-size="12">shadow</text>
<text transform="matrix(1 0 0 1 168.5591 230)" fill="#FFFFFF" font-family="'Helvetica'" font-size="12">host</text>
<circle fill="#008040" cx="251.5" cy="219" r="27"/>
<circle fill="none" stroke="#000000" stroke-linecap="round" stroke-linejoin="round" cx="251.5" cy="219" r="27"/>
<circle fill="#008040" cx="395.5" cy="219" r="27"/>
<circle fill="none" stroke="#000000" stroke-linecap="round" stroke-linejoin="round" cx="395.5" cy="219" r="27"/>
<text transform="matrix(1 0 0 1 375.2188 216)" fill="#FFFFFF" font-family="'Helvetica'" font-size="12">shadow</text>
<text transform="matrix(1 0 0 1 384.5586 230)" fill="#FFFFFF" font-family="'Helvetica'" font-size="12">host</text>
<path stroke="#000000" d="M395.5,497.6l3-8h-6L395.5,497.6z"/>
<path stroke="#000000" d="M341.621,503.846l7.293-4.451l-4.725-3.697L341.621,503.846z"/>
<path stroke="#000000" d="M456.776,407.618l-0.12-8.543l-5.588,2.186L456.776,407.618z"/>
<path stroke="#000000" d="M406.207,407.611l5.71-6.355l-5.587-2.188L406.207,407.611z"/>
<circle fill="#0080FF" cx="431.5" cy="343" r="27"/>
<circle fill="none" stroke="#000000" stroke-linecap="round" stroke-linejoin="round" cx="431.5" cy="343" r="27"/>
<text transform="matrix(1 0 0 1 411.2188 340)" fill="#FFFFFF" font-family="'Helvetica'" font-size="12">shadow</text>
<text transform="matrix(1 0 0 1 421.5605 354)" fill="#FFFFFF" font-family="'Helvetica'" font-size="12">root</text>
<circle fill="#008040" cx="395.5" cy="435" r="27"/>
<circle fill="none" stroke="#000000" stroke-linecap="round" stroke-linejoin="round" cx="395.5" cy="435" r="27"/>
<circle fill="#008040" cx="467.5" cy="435" r="27"/>
<circle fill="none" stroke="#000000" stroke-linecap="round" stroke-linejoin="round" cx="467.5" cy="435" r="27"/>
<circle fill="#008040" cx="323.5" cy="527" r="27"/>
<circle fill="none" stroke="#000000" stroke-linecap="round" stroke-linejoin="round" cx="323.5" cy="527" r="27"/>
<text transform="matrix(1 0 0 1 303.2188 524)" fill="#FFFFFF" font-family="'Helvetica'" font-size="12">shadow</text>
<text transform="matrix(1 0 0 1 312.5586 538)" fill="#FFFFFF" font-family="'Helvetica'" font-size="12">host</text>
<circle fill="#008040" cx="395.5" cy="527" r="27"/>
<circle fill="none" stroke="#000000" stroke-linecap="round" stroke-linejoin="round" cx="395.5" cy="527" r="27"/>
<path stroke="#000000" d="M107.5,497.6l3-8h-6L107.5,497.6z"/>
<path stroke="#000000" d="M53.621,503.846l7.293-4.451l-4.725-3.697L53.621,503.846z"/>
<path stroke="#000000" d="M168.778,407.617l-0.121-8.543l-5.587,2.186L168.778,407.617z"/>
<path stroke="#000000" d="M118.21,407.613l5.709-6.356l-5.587-2.188L118.21,407.613z"/>
<circle fill="#0080FF" cx="143.5" cy="343" r="27"/>
<circle fill="none" stroke="#000000" stroke-linecap="round" stroke-linejoin="round" cx="143.5" cy="343" r="27"/>
<text transform="matrix(1 0 0 1 123.2192 340)" fill="#FFFFFF" font-family="'Helvetica'" font-size="12">shadow</text>
<text transform="matrix(1 0 0 1 133.561 354)" fill="#FFFFFF" font-family="'Helvetica'" font-size="12">root</text>
<circle fill="#008040" cx="107.5" cy="435" r="27"/>
<circle fill="none" stroke="#000000" stroke-linecap="round" stroke-linejoin="round" cx="107.5" cy="435" r="27"/>
<circle fill="#008040" cx="179.5" cy="435" r="27"/>
<circle fill="none" stroke="#000000" stroke-linecap="round" stroke-linejoin="round" cx="179.5" cy="435" r="27"/>
<circle fill="#008040" cx="35.5" cy="527" r="27"/>
<circle fill="none" stroke="#000000" stroke-linecap="round" stroke-linejoin="round" cx="35.5" cy="527" r="27"/>
<circle fill="#008040" cx="107.5" cy="527" r="27"/>
<circle fill="none" stroke="#000000" stroke-linecap="round" stroke-linejoin="round" cx="107.5" cy="527" r="27"/>
<path fill="#6666FF" stroke="#6666FF" d="M423.299,314.762l0.65-8.519l-5.762,1.673L423.299,314.762z"/>
<path fill="#6666FF" stroke="#6666FF" d="M151.696,314.76l5.111-6.846l-5.762-1.673L151.696,314.76z"/>
<text transform="matrix(1 0 0 1 374.8984 274.1191)" font-family="'Helvetica'" font-size="12">hosts</text>
<text transform="matrix(1 0 0 1 173.1294 274.4502)" font-family="'Helvetica'" font-size="12">hosts</text>
<line fill="none" stroke="#000000" x1="311.925" y1="91.43" x2="303.219" y2="60.19"/>
<line fill="none" stroke="#000000" x1="202.578" y1="189.566" x2="233.38" y2="147.016"/>
<line fill="none" stroke="#000000" x1="251.54" y1="181.6" x2="251.5" y2="154"/>
<line fill="none" stroke="#000000" x1="323.517" y1="181.6" x2="323.5" y2="154"/>
<line fill="none" stroke="#000000" x1="372.449" y1="189.544" x2="341.621" y2="147.015"/>
<line fill="none" stroke="#000000" x1="267.04" y1="92.974" x2="283.5" y2="60.079"/>
<line fill="none" stroke="#000000" x1="121.126" y1="400.163" x2="133.561" y2="368.104"/>
<line fill="none" stroke="#000000" x1="165.864" y1="400.167" x2="153.927" y2="368.104"/>
<line fill="none" stroke="#000000" x1="409.123" y1="400.162" x2="422.5" y2="368.419"/>
<line fill="none" stroke="#000000" x1="453.862" y1="400.168" x2="440.5" y2="368.104"/>
<line fill="none" stroke="#000000" x1="58.552" y1="497.545" x2="92.65" y2="457.547"/>
<line fill="none" stroke="#000000" x1="107.5" y1="489.6" x2="107.5" y2="462"/>
<line fill="none" stroke="#000000" x1="179.517" y1="489.6" x2="179.5" y2="462"/>
<line fill="none" stroke="#000000" x1="228.45" y1="497.544" x2="197.65" y2="454.989"/>
<line fill="none" stroke="#000000" x1="346.552" y1="497.545" x2="380.65" y2="457.547"/>
<line fill="none" stroke="#000000" x1="395.5" y1="489.6" x2="395.5" y2="462"/>
<line fill="none" stroke="#000000" x1="467.517" y1="489.6" x2="467.5" y2="462"/>
<line fill="none" stroke="#000000" x1="516.449" y1="497.544" x2="482.35" y2="457.547"/>
<g>
	<g>
		<line fill="none" stroke="#6666FF" x1="153.927" y1="307.078" x2="154.816" y2="304.212"/>
		<line fill="none" stroke="#6666FF" stroke-dasharray="6.5282,6.5282" x1="156.752" y1="297.978" x2="171.272" y2="251.219"/>
		<line fill="none" stroke="#6666FF" x1="172.24" y1="248.102" x2="173.129" y2="245.237"/>
	</g>
</g>
<g>
	<g>
		<line fill="none" stroke="#6666FF" x1="421.068" y1="307.079" x2="420.179" y2="304.214"/>
		<line fill="none" stroke="#6666FF" stroke-dasharray="6.5282,6.5282" x1="418.243" y1="297.979" x2="403.729" y2="251.219"/>
		<line fill="none" stroke="#6666FF" x1="402.761" y1="248.102" x2="401.871" y2="245.237"/>
	</g>
</g>
</svg>
